<svg width="534" height="579" viewBox="0 0 534 579" fill="none" xmlns="http://www.w3.org/2000/svg">
<path d="M440 547.5C440 564.897 362.545 579 267 579C171.455 579 94 564.897 94 547.5C94 530.103 171.455 516 267 516C362.545 516 440 530.103 440 547.5Z" fill="#181818"/>
<path d="M267 530.5C412.527 530.5 530.5 412.527 530.5 267C530.5 121.473 412.527 3.5 267 3.5C121.473 3.5 3.5 121.473 3.5 267C3.5 412.527 121.473 530.5 267 530.5Z" fill="url(#paint0_linear_106_2)" stroke="#001A34" stroke-width="7"/>
<path d="M267 399.5C338.072 399.5 395.5 340.073 395.5 267C395.5 193.927 338.072 134.5 267 134.5C195.928 134.5 138.5 193.927 138.5 267C138.5 340.073 195.928 399.5 267 399.5Z" fill="#6ECCAF" stroke="#1A4067" stroke-width="7"/>
<path d="M235 258.6C221 265.2 212.8 277.6 212.8 294.2C212.8 323.4 237 339.8 266.8 339.8C296.6 339.8 320.8 323.4 320.8 294.2C320.8 277.6 312.6 265.4 298.4 258.6C309.4 252.8 317.2 242.2 317.2 227.2C317.2 206.4 301.2 188 266.8 188C232.4 188 216.2 206.4 216.2 227.2C216.2 242.6 223.8 252.6 235 258.6ZM266.8 249.4C257 249.4 249.6 243.2 249.6 232.6C249.6 221.4 256.6 215.2 266.8 215.2C277 215.2 284 221.4 284 232.4C284 243 276.6 249.4 266.8 249.4ZM266.8 273.4C279 273.4 287.4 280.6 287.4 292.6C287.4 303.4 279.8 311.8 266.8 311.8C253.6 311.8 245.8 303.6 245.8 292.6C245.8 280.2 254.6 273.4 266.8 273.4Z" fill="white"/>
<path d="M51 196C72.5 108 143.5 48.5 202.5 38" stroke="white" stroke-width="8" stroke-linecap="round"/>
<circle cx="228" cy="32" r="6" fill="white"/>
<defs>
<linearGradient id="paint0_linear_106_2" x1="149" y1="111.5" x2="543.5" y2="683" gradientUnits="userSpaceOnUse">
<stop stop-color="#365E87"/>
<stop offset="1" stop-color="#0B0F14"/>
</linearGradient>
</defs>
</svg>
