<svg width="42" height="42" viewBox="0 0 42 42" fill="none" xmlns="http://www.w3.org/2000/svg">
<path d="M33.7225 9.32758C31.395 8.24258 28.875 7.45508 26.25 7.00008C26.2269 6.99934 26.2041 7.00366 26.1829 7.01273C26.1617 7.02181 26.1428 7.03541 26.1275 7.05258C25.8125 7.63008 25.445 8.38258 25.2 8.96008C22.4157 8.54008 19.5842 8.54008 16.8 8.96008C16.555 8.36508 16.1875 7.63008 15.855 7.05258C15.8375 7.01758 15.785 7.00008 15.7325 7.00008C13.1075 7.45508 10.605 8.24258 8.25996 9.32758C8.24246 9.32758 8.22496 9.34508 8.20746 9.36258C3.44746 16.4851 2.13496 23.4151 2.78246 30.2751C2.78246 30.3101 2.79996 30.3451 2.83496 30.3626C5.98496 32.6726 9.01246 34.0726 12.005 35.0001C12.0575 35.0176 12.11 35.0001 12.1275 34.9651C12.8275 34.0026 13.4575 32.9876 14 31.9201C14.035 31.8501 14 31.7801 13.93 31.7626C12.9325 31.3776 11.9875 30.9226 11.06 30.3976C10.99 30.3626 10.99 30.2576 11.0425 30.2051C11.235 30.0651 11.4275 29.9076 11.62 29.7676C11.655 29.7326 11.7075 29.7326 11.7425 29.7501C17.7625 32.4976 24.255 32.4976 30.205 29.7501C30.24 29.7326 30.2925 29.7326 30.3275 29.7676C30.52 29.9251 30.7125 30.0651 30.905 30.2226C30.975 30.2751 30.975 30.3801 30.8875 30.4151C29.9775 30.9576 29.015 31.3951 28.0175 31.7801C27.9475 31.7976 27.93 31.8851 27.9475 31.9376C28.5075 33.0051 29.1375 34.0201 29.82 34.9826C29.8725 35.0001 29.925 35.0176 29.9775 35.0001C32.9875 34.0726 36.015 32.6726 39.165 30.3626C39.2 30.3451 39.2175 30.3101 39.2175 30.2751C39.9875 22.3476 37.94 15.4701 33.7925 9.36258C33.775 9.34508 33.7575 9.32758 33.7225 9.32758ZM14.91 26.0926C13.1075 26.0926 11.6025 24.4301 11.6025 22.3826C11.6025 20.3351 13.0725 18.6726 14.91 18.6726C16.765 18.6726 18.235 20.3526 18.2175 22.3826C18.2175 24.4301 16.7475 26.0926 14.91 26.0926ZM27.1075 26.0926C25.305 26.0926 23.8 24.4301 23.8 22.3826C23.8 20.3351 25.27 18.6726 27.1075 18.6726C28.9625 18.6726 30.4325 20.3526 30.415 22.3826C30.415 24.4301 28.9625 26.0926 27.1075 26.0926Z" fill="#F3ECB0"/>
</svg>
