<svg width="42" height="42" viewBox="0 0 42 42" fill="none" xmlns="http://www.w3.org/2000/svg">
<path d="M42 7.87509V34.1251C42 35.6148 40.8647 36.7501 39.375 36.7501H36.75V12.9269L21 24.2406L5.25 12.9269V36.7501H2.625C1.13531 36.7501 0 35.6148 0 34.1251V7.87509C0 7.12959 0.280875 6.47334 0.752062 6.00871C0.997464 5.76318 1.28973 5.56949 1.61148 5.43917C1.93323 5.30884 2.2779 5.24454 2.625 5.25009H3.50044L21 17.938L38.4996 5.25009H39.375C40.1205 5.25009 40.7767 5.53096 41.2479 6.00871C41.7191 6.47334 42 7.12959 42 7.87509Z" fill="#F3ECB0"/>
</svg>
